<?xml version="1.0" encoding="UTF-8" standalone="no"?>
<svg
   xmlns:dc="http://purl.org/dc/elements/1.1/"
   xmlns:cc="http://creativecommons.org/ns#"
   xmlns:rdf="http://www.w3.org/1999/02/22-rdf-syntax-ns#"
   xmlns:svg="http://www.w3.org/2000/svg"
   xmlns="http://www.w3.org/2000/svg"
   viewBox="0 0 150.50667 55.32"
   height="55.32"
   width="150.50667"
   xml:space="preserve"
   id="svg2"
   version="1.1"><metadata
     id="metadata8"><rdf:RDF><cc:Work
         rdf:about=""><dc:format>image/svg+xml</dc:format><dc:type
           rdf:resource="http://purl.org/dc/dcmitype/StillImage" /></cc:Work></rdf:RDF></metadata><defs
     id="defs6" /><g
     transform="matrix(1.3333333,0,0,-1.3333333,0,55.32)"
     id="g10"><g
       transform="scale(0.1)"
       id="g12"><path
         id="path14"
         style="fill:#ed1952;fill-opacity:1;fill-rule:nonzero;stroke:none"
         d="M 207.449,103.73 H 0 V 311.195 H 207.449 V 103.73" /><path
         id="path16"
         style="fill:#ed1952;fill-opacity:1;fill-rule:nonzero;stroke:none"
         d="M 435.652,103.73 H 228.191 V 311.195 H 435.652 V 103.73" /><path
         id="path18"
         style="fill:#ed1952;fill-opacity:1;fill-rule:nonzero;stroke:none"
         d="M 663.852,103.73 H 456.406 V 311.195 H 663.852 V 103.73" /><path
         id="path20"
         style="fill:#ed1952;fill-opacity:1;fill-rule:nonzero;stroke:none"
         d="M 311.191,0 H 103.719 V 207.465 H 311.191 V 0" /><path
         id="path22"
         style="fill:#ed1952;fill-opacity:1;fill-rule:nonzero;stroke:none"
         d="M 560.117,207.465 H 352.676 V 414.926 H 560.117 V 207.465" /><path
         id="path24"
         style="fill:#231f20;fill-opacity:1;fill-rule:nonzero;stroke:none"
         d="m 751.039,277.914 h -66.426 v 33.195 H 855.805 V 277.914 H 789.398 V 104.18 h -38.359 v 173.734" /><path
         id="path26"
         style="fill:#231f20;fill-opacity:1;fill-rule:nonzero;stroke:none"
         d="m 1048.29,180.215 c 0,-12.461 -2.25,-23.711 -6.72,-33.75 -4.5,-10.039 -10.61,-18.555 -18.36,-25.567 -7.76,-7.031 -16.9,-12.421 -27.503,-16.21 -10.605,-3.809 -22.109,-5.7036 -34.551,-5.7036 -12.422,0 -23.945,1.8946 -34.551,5.7036 -10.605,3.789 -19.824,9.179 -27.656,16.21 -7.851,7.012 -13.984,15.528 -18.34,25.567 -4.394,10.039 -6.582,21.289 -6.582,33.75 v 130.894 h 38.379 V 181.523 c 0,-5.039 0.801,-10.351 2.442,-15.898 1.64,-5.547 4.336,-10.664 8.125,-15.332 3.789,-4.668 8.789,-8.516 15.039,-11.523 6.211,-3.008 13.926,-4.512 23.144,-4.512 9.199,0 16.914,1.504 23.145,4.512 6.23,3.007 11.25,6.855 15.039,11.523 3.77,4.668 6.48,9.785 8.12,15.332 1.63,5.547 2.45,10.859 2.45,15.898 v 129.586 h 38.38 V 180.215" /><path
         id="path28"
         style="fill:#231f20;fill-opacity:1;fill-rule:nonzero;stroke:none"
         d="m 832.563,75.6641 c -7.598,3.2812 -17.461,4.8632 -25.333,4.8632 -22.929,0 -35.605,-14.4335 -35.605,-33.1835 0,-18.6133 12.383,-32.6368 33.34,-32.6368 5.351,0 9.59,0.5274 12.969,1.3086 v 23.8672 h -20.84 v 14.4141 h 39.687 V 5 c -10.41,-2.61719 -21.25,-4.707031 -31.816,-4.707031 -31.797,0 -53.906,14.804731 -53.906,45.742231 0,31.3476 20.566,48.9062 53.906,48.9062 11.406,0 20.41,-1.4453 28.867,-3.8086 l -1.269,-15.4687" /><path
         id="path30"
         style="fill:#231f20;fill-opacity:1;fill-rule:nonzero;stroke:none"
         d="m 856.195,69.375 h 16.758 V 54.043 h 0.293 c 0.84,6.289 8.574,16.914 19.824,16.914 1.836,0 3.828,0 5.782,-0.5273 V 52.7148 c -1.68,0.918 -5.059,1.4454 -8.457,1.4454 -15.332,0 -15.332,-17.8321 -15.332,-27.5196 V 1.85547 H 856.195 V 69.375" /><path
         id="path32"
         style="fill:#231f20;fill-opacity:1;fill-rule:nonzero;stroke:none"
         d="m 913.754,65.8398 c 7.324,3.1446 17.187,5.1172 25.215,5.1172 22.09,0 31.23,-8.5351 31.23,-28.457 v -8.6523 c 0,-6.8164 0.156,-11.9336 0.293,-16.9141 0.137,-5.1172 0.41,-9.82422 0.84,-15.07813 H 954.73 c -0.703,3.53516 -0.703,8.00781 -0.839,10.09763 h -0.293 C 949.242,4.49219 939.789,0.292969 931.215,0.292969 c -12.793,0 -25.332,7.207031 -25.332,20.058631 0,10.0781 5.195,15.9765 12.383,19.2578 7.187,3.2812 16.464,3.9453 24.355,3.9453 h 10.41 c 0,10.8789 -5.195,14.5508 -16.328,14.5508 -8.008,0 -16.035,-2.8907 -22.363,-7.3438 z M 935.863,13.125 c 5.782,0 10.274,2.3633 13.223,6.0352 3.105,3.8086 3.945,8.6523 3.945,13.9062 h -8.164 c -8.437,0 -20.957,-1.3086 -20.957,-11.6797 0,-5.7617 5.195,-8.2617 11.953,-8.2617" /><path
         id="path34"
         style="fill:#231f20;fill-opacity:1;fill-rule:nonzero;stroke:none"
         d="m 985.688,69.375 h 57.422 V 54.9609 l -36.04,-39.4726 h 37.31 V 1.85547 H 984.145 V 16.1523 l 36.715,39.5899 H 985.688 V 69.375" /><path
         id="path36"
         style="fill:#ed1952;fill-opacity:1;fill-rule:nonzero;stroke:none"
         d="m 1059.65,0 h 69.1 v 69.1211 h -69.1 V 0" /></g></g></svg>