<?xml version="1.0" encoding="UTF-8"?>
<!DOCTYPE svg PUBLIC "-//W3C//DTD SVG 1.1//EN" "http://www.w3.org/Graphics/SVG/1.1/DTD/svg11.dtd">
<svg xmlns="http://www.w3.org/2000/svg" 
version="1.1" width="2060px" height="480px" style="shape-rendering:geometricPrecision; text-rendering:geometricPrecision; image-rendering:optimizeQuality; fill-rule:evenodd; clip-rule:evenodd" xmlns:xlink="http://www.w3.org/1999/xlink">
<g><path style="opacity:0.953" fill="#ff5500" d="M 630.5,46.5 C 670.488,44.6729 695.655,63.0062 706,101.5C 709.884,136.904 695.717,162.071 663.5,177C 658.593,178.614 653.593,179.781 648.5,180.5C 648.167,202.843 648.5,225.177 649.5,247.5C 661.912,249.293 673.079,253.959 683,261.5C 698.282,249.222 713.282,236.556 728,223.5C 728.667,222.5 728.667,221.5 728,220.5C 714.506,200.247 711.84,178.58 720,155.5C 737.158,121.841 764.324,109.007 801.5,117C 836.224,130.275 851.724,155.442 848,192.5C 843.581,215.192 831.081,231.692 810.5,242C 786.554,251.672 763.888,249.339 742.5,235C 741.5,234.333 740.5,234.333 739.5,235C 724.5,248 709.5,261 694.5,274C 701.869,283.605 706.203,294.439 707.5,306.5C 736.174,306.833 764.841,306.5 793.5,305.5C 804.395,262.876 831.729,244.376 875.5,250C 907.977,259.483 925.31,281.15 927.5,315C 923.667,356.167 901.167,378.667 860,382.5C 822.811,379.145 800.645,359.145 793.5,322.5C 764.833,322.5 736.167,322.5 707.5,322.5C 704.266,344.881 692.933,361.715 673.5,373C 647.676,385.151 623.009,383.151 599.5,367C 577.321,347.459 569.821,323.292 577,294.5C 586.171,268.085 604.505,252.418 632,247.5C 632.5,225.169 632.667,202.836 632.5,180.5C 600.464,174.964 580.964,156.298 574,124.5C 571.17,82.5333 590.003,56.5333 630.5,46.5 Z M 630.5,62.5 C 666.309,60.9751 686.643,77.9751 691.5,113.5C 690.156,135.319 679.823,151.152 660.5,161C 634.565,170.022 613.398,163.522 597,141.5C 582.928,113.974 587.761,90.4736 611.5,71C 617.453,67.0811 623.786,64.2477 630.5,62.5 Z M 772.5,130.5 C 802.981,128.168 822.814,141.501 832,170.5C 835.783,193.759 827.95,211.926 808.5,225C 780.818,238.12 757.652,232.62 739,208.5C 724.68,179.616 730.513,155.782 756.5,137C 761.744,134.315 767.077,132.148 772.5,130.5 Z M 631.5,263.5 C 661.981,261.168 681.814,274.501 691,303.5C 694.783,326.759 686.95,344.926 667.5,358C 639.776,371.11 616.609,365.61 598,341.5C 583.68,312.616 589.513,288.782 615.5,270C 620.744,267.315 626.077,265.148 631.5,263.5 Z M 850.5,264.5 C 880.981,262.168 900.814,275.501 910,304.5C 913.783,327.759 905.95,345.926 886.5,359C 858.776,372.11 835.609,366.61 817,342.5C 802.68,313.616 808.513,289.782 834.5,271C 839.744,268.315 845.077,266.148 850.5,264.5 Z"/></g>
<g><path style="opacity:0.936" fill="#ff5500" d="M 929.5,81.5 C 939.872,80.6045 949.372,82.9378 958,88.5C 958.789,92.0915 958.622,95.5915 957.5,99C 950.657,96.1845 943.49,94.0179 936,92.5C 923.001,93.8673 918.668,100.534 923,112.5C 924.833,114.333 926.667,116.167 928.5,118C 935.833,121.667 943.167,125.333 950.5,129C 961.878,136.12 966.045,146.286 963,159.5C 957.402,173.979 946.735,180.646 931,179.5C 922.512,179.92 914.678,177.92 907.5,173.5C 904.347,169.582 903.681,165.249 905.5,160.5C 911.34,162.082 917.007,164.248 922.5,167C 929.792,169.338 936.792,168.671 943.5,165C 950.401,158.562 951.234,151.395 946,143.5C 936.409,137.62 926.576,132.12 916.5,127C 906.733,116.884 904.9,105.384 911,92.5C 916.101,86.8729 922.267,83.2062 929.5,81.5 Z"/></g>
<g><path style="opacity:0.929" fill="#ff5400" d="M 983.5,82.5 C 986.909,82.2493 990.242,82.5827 993.5,83.5C 994.499,96.4829 994.832,109.483 994.5,122.5C 1008.5,122.5 1022.5,122.5 1036.5,122.5C 1036.33,109.829 1036.5,97.1623 1037,84.5C 1040.92,82.2263 1045.08,81.893 1049.5,83.5C 1050.83,115.066 1050.83,146.566 1049.5,178C 1047.5,178.167 1045.5,178.333 1043.5,178.5C 1041.04,178.41 1038.87,177.743 1037,176.5C 1036.5,162.504 1036.33,148.504 1036.5,134.5C 1022.5,134.5 1008.5,134.5 994.5,134.5C 994.667,148.837 994.5,163.171 994,177.5C 990,178.833 986,178.833 982,177.5C 981.833,161.833 981.667,146.167 981.5,130.5C 981.515,114.28 982.182,98.2803 983.5,82.5 Z"/></g>
<g><path style="opacity:0.936" fill="#ff5500" d="M 1099.5,82.5 C 1103.51,82.3345 1107.51,82.5012 1111.5,83C 1112.42,83.3742 1113.25,83.8742 1114,84.5C 1123.47,111.243 1133.14,137.91 1143,164.5C 1144.89,169.007 1146.06,173.673 1146.5,178.5C 1141.9,178.8 1137.4,178.467 1133,177.5C 1129.87,169.949 1127.04,162.282 1124.5,154.5C 1111.5,153.167 1098.5,153.167 1085.5,154.5C 1082.98,162.579 1079.98,170.413 1076.5,178C 1072.51,178.499 1068.51,178.666 1064.5,178.5C 1064.35,175.393 1064.85,172.393 1066,169.5C 1076.2,141.91 1086.2,114.243 1096,86.5C 1096.69,84.6498 1097.86,83.3164 1099.5,82.5 Z M 1104.5,98.5 C 1109.91,112.88 1115.24,127.38 1120.5,142C 1110.15,142.832 1099.82,142.666 1089.5,141.5C 1094.31,127.063 1099.31,112.73 1104.5,98.5 Z"/></g>
<g><path style="opacity:0.945" fill="#ff5500" d="M 1165.5,82.5 C 1173.84,82.3336 1182.17,82.5003 1190.5,83C 1214.58,84.7484 1223.42,97.2484 1217,120.5C 1213.43,125.876 1208.6,129.709 1202.5,132C 1207.88,135.571 1211.71,140.405 1214,146.5C 1217.97,156.278 1221.81,166.111 1225.5,176C 1225.36,176.772 1225.02,177.439 1224.5,178C 1220.5,178.667 1216.5,178.667 1212.5,178C 1207.61,167.72 1203.11,157.22 1199,146.5C 1193.24,137.629 1185.08,134.295 1174.5,136.5C 1174.67,150.171 1174.5,163.837 1174,177.5C 1170,178.833 1166,178.833 1162,177.5C 1161.33,146.833 1161.33,116.167 1162,85.5C 1162.98,84.1859 1164.15,83.1859 1165.5,82.5 Z M 1174.5,94.5 C 1182.25,94.1039 1189.92,94.6039 1197.5,96C 1205.46,101.898 1207.29,109.398 1203,118.5C 1199.75,122.366 1195.58,124.533 1190.5,125C 1185.18,125.499 1179.84,125.666 1174.5,125.5C 1174.5,115.167 1174.5,104.833 1174.5,94.5 Z"/></g>
<g><path style="opacity:0.936" fill="#ff5400" d="M 1246.5,82.5 C 1261.84,82.3334 1277.17,82.5001 1292.5,83C 1296.1,86.2715 1296.43,89.9382 1293.5,94C 1280.84,94.4999 1268.17,94.6666 1255.5,94.5C 1255.5,104.167 1255.5,113.833 1255.5,123.5C 1266.51,123.333 1277.51,123.5 1288.5,124C 1290.1,127.596 1289.77,130.929 1287.5,134C 1276.84,134.5 1266.17,134.667 1255.5,134.5C 1255.5,145.5 1255.5,156.5 1255.5,167.5C 1268.5,167.333 1281.5,167.5 1294.5,168C 1295.83,171.333 1295.83,174.667 1294.5,178C 1277.83,178.667 1261.17,178.667 1244.5,178C 1244,177.5 1243.5,177 1243,176.5C 1242.33,146.167 1242.33,115.833 1243,85.5C 1243.98,84.1859 1245.15,83.1859 1246.5,82.5 Z"/></g>
<g><path style="opacity:0.944" fill="#ff5500" d="M 1319.5,82.5 C 1332.92,82.07 1346.26,82.9033 1359.5,85C 1375.84,90.3385 1385.34,101.505 1388,118.5C 1390.12,132.828 1388.12,146.495 1382,159.5C 1374.24,170.965 1363.41,177.131 1349.5,178C 1338.83,178.667 1328.17,178.667 1317.5,178C 1317,177.5 1316.5,177 1316,176.5C 1315.33,146.167 1315.33,115.833 1316,85.5C 1316.98,84.1859 1318.15,83.1859 1319.5,82.5 Z M 1328.5,94.5 C 1362.4,90.5692 1377.57,105.569 1374,139.5C 1372.67,153.697 1365.17,162.531 1351.5,166C 1343.87,167.142 1336.21,167.642 1328.5,167.5C 1328.5,143.167 1328.5,118.833 1328.5,94.5 Z"/></g>
<g><path style="opacity:0.945" fill="#ff5500" d="M 1013.5,262.5 C 1021.84,262.334 1030.17,262.5 1038.5,263C 1062.58,264.748 1071.42,277.248 1065,300.5C 1061.43,305.876 1056.6,309.709 1050.5,312C 1055.88,315.571 1059.71,320.405 1062,326.5C 1065.97,336.278 1069.81,346.111 1073.5,356C 1073.36,356.772 1073.02,357.439 1072.5,358C 1068.5,358.667 1064.5,358.667 1060.5,358C 1055.61,347.72 1051.11,337.22 1047,326.5C 1041.24,317.629 1033.08,314.295 1022.5,316.5C 1022.67,330.171 1022.5,343.837 1022,357.5C 1018,358.833 1014,358.833 1010,357.5C 1009.33,326.833 1009.33,296.167 1010,265.5C 1010.98,264.186 1012.15,263.186 1013.5,262.5 Z M 1022.5,274.5 C 1030.25,274.104 1037.92,274.604 1045.5,276C 1053.46,281.898 1055.29,289.398 1051,298.5C 1047.75,302.366 1043.58,304.533 1038.5,305C 1033.18,305.499 1027.84,305.666 1022.5,305.5C 1022.5,295.167 1022.5,284.833 1022.5,274.5 Z"/></g>
<g><path style="opacity:0.944" fill="#ff5500" d="M 1094.5,262.5 C 1107.92,262.07 1121.26,262.903 1134.5,265C 1150.84,270.339 1160.34,281.505 1163,298.5C 1165.12,312.828 1163.12,326.495 1157,339.5C 1149.24,350.965 1138.41,357.131 1124.5,358C 1113.83,358.667 1103.17,358.667 1092.5,358C 1092,357.5 1091.5,357 1091,356.5C 1090.33,326.167 1090.33,295.833 1091,265.5C 1091.98,264.186 1093.15,263.186 1094.5,262.5 Z M 1103.5,274.5 C 1137.4,270.569 1152.57,285.569 1149,319.5C 1147.67,333.697 1140.17,342.531 1126.5,346C 1118.87,347.142 1111.21,347.642 1103.5,347.5C 1103.5,323.167 1103.5,298.833 1103.5,274.5 Z"/></g>
<g><path style="opacity:0.946" fill="#ff5500" d="M 1187.5,262.5 C 1192.23,262.378 1196.9,262.878 1201.5,264C 1202.93,264.465 1204.1,265.299 1205,266.5C 1214.86,290.42 1224.53,314.42 1234,338.5C 1244,314.5 1254,290.5 1264,266.5C 1270.05,262.411 1276.55,261.577 1283.5,264C 1284.89,265.171 1285.73,266.671 1286,268.5C 1286.67,297.833 1286.67,327.167 1286,356.5C 1284.13,357.743 1281.96,358.41 1279.5,358.5C 1277.24,358.468 1275.07,358.134 1273,357.5C 1272.67,330.833 1272.33,304.167 1272,277.5C 1261.5,304.665 1250.33,331.498 1238.5,358C 1234.58,358.793 1230.74,358.626 1227,357.5C 1216.67,330.833 1206.33,304.167 1196,277.5C 1195.67,304.167 1195.33,330.833 1195,357.5C 1190.93,358.464 1186.77,358.797 1182.5,358.5C 1182.33,327.498 1182.5,296.498 1183,265.5C 1184.41,264.219 1185.91,263.219 1187.5,262.5 Z"/></g>
</svg>
